<svg width="92" height="27" viewBox="0 0 92 27" fill="none" xmlns="http://www.w3.org/2000/svg">
<path d="M7.792 5.616C9.192 5.616 10.4707 5.90533 11.628 6.484C12.7853 7.044 13.7653 7.856 14.568 8.92L12.076 11.916C11.5907 10.5347 10.9 9.396 10.004 8.5C9.108 7.604 8.044 7.156 6.812 7.156C5.748 7.156 4.89867 7.492 4.264 8.164C3.62933 8.836 3.312 9.68533 3.312 10.712C3.312 11.608 3.52667 12.364 3.956 12.98C4.404 13.5773 4.94533 14.072 5.58 14.464C6.23333 14.8373 7.11067 15.276 8.212 15.78C9.332 16.3027 10.228 16.76 10.9 17.152C11.572 17.544 12.132 18.0667 12.58 18.72C13.0467 19.3733 13.28 20.1667 13.28 21.1C13.28 22.7427 12.692 24.0213 11.516 24.936C10.3587 25.8507 8.84667 26.308 6.98 26.308C5.692 26.308 4.46 26.0467 3.284 25.524C2.108 24.9827 1.19333 24.2453 0.54 23.312L2.948 20.54C3.47067 21.884 4.16133 22.9573 5.02 23.76C5.89733 24.5627 6.84 24.964 7.848 24.964C8.61333 24.964 9.22933 24.7307 9.696 24.264C10.1813 23.7973 10.424 23.2467 10.424 22.612C10.424 21.996 10.2373 21.4547 9.864 20.988C9.49067 20.5027 9.01467 20.092 8.436 19.756C7.85733 19.4013 7.08267 18.9907 6.112 18.524C4.86133 17.908 3.844 17.3573 3.06 16.872C2.276 16.368 1.604 15.7147 1.044 14.912C0.502667 14.1093 0.232 13.1387 0.232 12C0.232 10.7867 0.558667 9.69467 1.212 8.724C1.884 7.75333 2.79867 6.99733 3.956 6.456C5.11333 5.896 6.392 5.616 7.792 5.616ZM20.1046 19.056H20.2166C20.6272 17.2453 21.2992 15.5747 22.2326 14.044C23.1659 12.5133 24.3139 11.748 25.6766 11.748C26.3112 11.748 26.7779 11.944 27.0766 12.336C27.3939 12.728 27.5899 13.1947 27.6646 13.736C27.7392 14.2587 27.7766 14.9027 27.7766 15.668V23.424C27.7766 23.648 27.8419 23.8627 27.9726 24.068C28.1219 24.2547 28.3272 24.348 28.5886 24.348C29.0366 24.348 29.5032 24.0213 29.9886 23.368L30.4646 23.9C30.1472 24.5347 29.6899 25.076 29.0926 25.524C28.4952 25.972 27.8419 26.196 27.1326 26.196C25.3592 26.196 24.4726 25.216 24.4726 23.256V15.92C24.4726 15.6773 24.4259 15.4627 24.3326 15.276C24.2579 15.0707 24.1179 14.968 23.9126 14.968C23.1286 14.968 22.4472 15.6213 21.8686 16.928C21.3086 18.2347 20.8699 19.7467 20.5526 21.464C20.2539 23.1813 20.1046 24.572 20.1046 25.636L16.7446 26.364V1.304L20.1046 0.127999V19.056ZM39.7328 12C40.7221 12 41.6368 12.196 42.4768 12.588C43.3354 12.98 43.9701 13.5867 44.3808 14.408L41.6648 15.528C41.4034 15.0427 41.0394 14.6413 40.5728 14.324C40.1061 14.0067 39.6114 13.848 39.0888 13.848C37.8381 13.848 36.8488 14.3707 36.1208 15.416C35.3928 16.4613 35.0288 17.768 35.0288 19.336C35.0288 20.7733 35.2434 21.9587 35.6728 22.892C36.1021 23.8067 36.7834 24.264 37.7168 24.264C39.0234 24.264 39.9194 23.6573 40.4048 22.444C40.8901 21.212 41.1328 19.8773 41.1328 18.44V17.208L44.4088 16.032V23.312C44.4088 23.5733 44.4648 23.8067 44.5768 24.012C44.7074 24.1987 44.8941 24.292 45.1368 24.292C45.6034 24.292 46.0794 23.9653 46.5648 23.312L47.0968 23.844C46.8168 24.4973 46.3688 25.0573 45.7528 25.524C45.1554 25.972 44.5114 26.196 43.8208 26.196C42.9248 26.196 42.2714 25.8973 41.8608 25.3C41.4501 24.684 41.2448 23.9 41.2448 22.948H41.1328C40.6848 23.956 40.0874 24.7773 39.3408 25.412C38.5941 26.028 37.7261 26.336 36.7368 26.336C35.2434 26.336 34.0861 25.7947 33.2648 24.712C32.4621 23.6107 32.0608 22.1827 32.0608 20.428C32.0608 18.9347 32.3781 17.544 33.0128 16.256C33.6661 14.968 34.5714 13.9413 35.7288 13.176C36.9048 12.392 38.2394 12 39.7328 12ZM54.7944 15.78C54.0104 16.6573 53.329 17.7587 52.7504 19.084C52.1904 20.3907 51.9104 21.5853 51.9104 22.668C51.9104 23.7133 52.1904 24.5813 52.7504 25.272C53.3104 25.944 54.1037 26.28 55.1304 26.28C55.9517 26.28 56.7357 26.0747 57.4824 25.664C58.2477 25.2533 58.901 24.7027 59.4424 24.012L59.0224 23.508C58.3877 23.9187 57.7904 24.124 57.2304 24.124C56.3904 24.124 55.7464 23.8347 55.2984 23.256C54.869 22.6773 54.6544 21.9587 54.6544 21.1C54.6544 19.7 55.037 18.3093 55.8024 16.928C56.5677 15.5467 57.4917 14.352 58.5744 13.344L58.0704 12.812C56.8197 13.6333 55.625 14.044 54.4864 14.044C53.7584 14.044 53.0957 13.764 52.4984 13.204C51.9197 12.6253 51.5277 11.9533 51.3224 11.188L48.6344 14.212C48.709 14.4733 48.8957 14.7347 49.1944 14.996C49.493 15.2573 49.6704 15.416 49.7264 15.472L47.8504 19.336L48.9984 19.84L50.8184 15.948C51.3037 16.1347 51.8357 16.228 52.4144 16.228C53.3104 16.228 54.0757 16.0413 54.7104 15.668L54.7944 15.78ZM69.3025 11.748C70.3852 11.748 71.2905 12.028 72.0185 12.588C72.7465 13.1293 73.1105 13.9227 73.1105 14.968C73.1105 15.808 72.6532 16.7507 71.7385 17.796C70.8425 18.8227 69.7692 19.784 68.5185 20.68C67.2865 21.5573 66.2319 22.192 65.3545 22.584C66.1385 23.8347 67.2865 24.46 68.7985 24.46C69.6385 24.46 70.4785 24.2267 71.3185 23.76C72.1772 23.2747 72.9052 22.64 73.5025 21.856L74.0625 22.528C73.0919 23.7413 72.0652 24.684 70.9825 25.356C69.9185 26.0093 68.6492 26.336 67.1745 26.336C65.9799 26.336 64.9065 26.0653 63.9545 25.524C63.0212 24.9827 62.2839 24.2453 61.7425 23.312C61.2199 22.36 60.9585 21.296 60.9585 20.12C60.9585 18.7013 61.3412 17.348 62.1065 16.06C62.8905 14.7533 63.9265 13.708 65.2145 12.924C66.5025 12.14 67.8652 11.748 69.3025 11.748ZM67.7065 13.568C66.9972 13.568 66.3625 13.8293 65.8025 14.352C65.2425 14.856 64.8039 15.5093 64.4865 16.312C64.1692 17.1147 64.0105 17.9453 64.0105 18.804C64.0105 19.924 64.2532 20.8853 64.7385 21.688C65.4292 21.296 66.1572 20.7547 66.9225 20.064C67.7065 19.3547 68.3599 18.5987 68.8825 17.796C69.4052 16.9933 69.6665 16.2653 69.6665 15.612C69.6665 14.9587 69.4892 14.4547 69.1345 14.1C68.7985 13.7453 68.3225 13.568 67.7065 13.568ZM88.4895 23.312C88.4895 23.5733 88.5455 23.8067 88.6575 24.012C88.7882 24.1987 88.9749 24.292 89.2175 24.292C89.4602 24.292 89.7029 24.1893 89.9455 23.984C90.2069 23.7787 90.4029 23.5547 90.5335 23.312L91.1495 23.844C90.8135 24.4973 90.3469 25.0573 89.7495 25.524C89.1709 25.972 88.5455 26.196 87.8735 26.196C86.9029 26.196 86.2029 25.9347 85.7735 25.412C85.3442 24.8707 85.1389 24.0493 85.1575 22.948H85.0175C84.5882 23.9187 84.0282 24.7307 83.3375 25.384C82.6469 26.0187 81.8162 26.336 80.8455 26.336C79.8189 26.336 78.9415 26.0747 78.2135 25.552C77.4855 25.0293 76.9349 24.3293 76.5615 23.452C76.1882 22.556 76.0015 21.5667 76.0015 20.484C76.0015 19.1027 76.2815 17.7493 76.8415 16.424C77.4202 15.08 78.2509 13.9787 79.3335 13.12C80.4162 12.2613 81.6762 11.832 83.1135 11.832C83.8415 11.832 84.5042 12.0093 85.1015 12.364V1.304L88.4895 0.127999V23.312ZM83.0575 13.624C82.1615 13.624 81.4149 13.932 80.8175 14.548C80.2389 15.1453 79.8095 15.892 79.5295 16.788C79.2495 17.6653 79.1095 18.5333 79.1095 19.392C79.1095 20.5493 79.3335 21.6507 79.7815 22.696C80.2482 23.7413 80.9762 24.264 81.9655 24.264C83.1602 24.264 83.9815 23.6573 84.4295 22.444C84.8775 21.212 85.1015 19.8773 85.1015 18.44V14.548C84.4855 13.932 83.8042 13.624 83.0575 13.624Z" fill="#4574C4"/>
</svg>
